<?xml version="1.0" encoding="UTF-8" standalone="no"?>
<svg width="52px" height="64px" viewBox="0 0 52 64" version="1.1" xmlns="http://www.w3.org/2000/svg" xmlns:xlink="http://www.w3.org/1999/xlink" xmlns:sketch="http://www.bohemiancoding.com/sketch/ns">
    <!-- Generator: Sketch 3.4 (15575) - http://www.bohemiancoding.com/sketch -->
    <title>icon-cellular</title>
    <desc>Created with Sketch.</desc>
    <defs>
        <path id="path-1" d="M4.88543689,73.4252427 L32.1145631,32.3300971 L37.7184466,32.3300971 L63.5106796,71.3417476 L70.2640777,51.9436893 L71.6291262,30.1029126 L69.1864078,17.4582524 L60.9242718,6.75339806 L51.1533981,2.01165049 L39.9456311,0 L26.5825243,0 L16.3805825,3.23300971 L8.19029126,8.04660194 L2.29902913,18.5359223 L0,29.384466 L0,44.5436893 L2.15533981,66.6718447 L4.88543689,73.4252427 Z"/>
    </defs>
    <g id="Marketing" stroke="none" stroke-width="1" fill="none" fill-rule="evenodd" sketch:type="MSPage">
        <g id="/home" sketch:type="MSArtboardGroup" transform="translate(-370.000000, -2362.000000)">
            <g id="Group" sketch:type="MSLayerGroup" transform="translate(0.000000, 2099.000000)">
                <g id="icon-cellular" transform="translate(361.000000, 254.000000)">
                    <path d="M35.8504854,36.8563107 L57.2601942,71.8446602 M12.3572816,71.8446602 L33.838835,36.784466" id="Shape" stroke="#00B9E4" stroke-width="2" sketch:type="MSShapeGroup"/>
                    <ellipse id="Oval" sketch:type="MSShapeGroup" cx="35.4194175" cy="32.3300971" rx="4.59805825" ry="4.52621359"/>
                    <ellipse id="Oval" stroke="#00B9E4" stroke-width="2" sketch:type="MSShapeGroup" cx="35.4194175" cy="32.3300971" rx="4.59805825" ry="4.52621359"/>
                    <path d="M28.8815534,44.5436893 L42.4601942,47.8485437 L22.7747573,55.176699 L50.5067961,60.9242718 L13.9378641,69.2582524" id="Shape" stroke="#00B9E4" sketch:type="MSShapeGroup"/>
                    <g id="Clipped">
                        <mask id="mask-2" sketch:name="SVGID_9_" fill="white">
                            <use xlink:href="#path-1"/>
                        </mask>
                        <g id="SVGID_9_"/>
                        <g id="Group" mask="url(#mask-2)" stroke="#00B9E4" stroke-width="2" sketch:type="MSShapeGroup">
                            <g transform="translate(10.776699, 10.058252)" id="Oval">
                                <ellipse cx="24.5708738" cy="24.2834951" rx="24.4990291" ry="24.1398058"/>
                                <ellipse cx="25.0019417" cy="23.7087379" rx="16.5242718" ry="16.3087379"/>
                            </g>
                        </g>
                    </g>
                </g>
            </g>
        </g>
    </g>
</svg>