<?xml version="1.0" encoding="UTF-8" standalone="no"?>
<svg width="76px" height="67px" viewBox="0 0 76 67" version="1.1" xmlns="http://www.w3.org/2000/svg" xmlns:xlink="http://www.w3.org/1999/xlink" xmlns:sketch="http://www.bohemiancoding.com/sketch/ns">
    <!-- Generator: Sketch 3.4 (15575) - http://www.bohemiancoding.com/sketch -->
    <title>icon-battery</title>
    <desc>Created with Sketch.</desc>
    <defs/>
    <g id="Marketing" stroke="none" stroke-width="1" fill="none" fill-rule="evenodd" sketch:type="MSPage">
        <g id="/home" sketch:type="MSArtboardGroup" transform="translate(-682.000000, -2356.000000)" stroke="#00B9E4" stroke-width="2">
            <g id="Group" sketch:type="MSLayerGroup" transform="translate(0.000000, 2099.000000)">
                <g id="icon-battery" transform="translate(683.000000, 261.000000)" sketch:type="MSShapeGroup">
                    <path d="M40.5,49.5 L64.0342105,49.5 C64.7289474,49.5 65.4236842,49.1454545 66.0315789,48.8795455 C66.6394737,48.6136364 66.7263158,48.0818182 67.2473684,47.6386364 C68.2026316,46.6636364 68.2894737,45.2454545 68.2894737,43.8272727 L68.2894737,38.8636364 L68.2894737,38.8636364 L73.5,38.8636364 L73.5,21.1363636 L68.2894737,21.1363636 L68.2894737,21.1363636 L68.2894737,15.7295455 C68.2894737,13.9568182 67.8552632,12.3613636 66.4657895,11.3863636 C65.6842105,10.8545455 65.0763158,10.5 64.0342105,10.5 L47.4473684,10.5" id="Shape"/>
                    <path d="M32.5071429,10.5 L5.19761905,10.5 C4.14047619,10.5 3.08333333,10.8545455 2.29047619,11.3863636 C0.880952381,12.3613636 -3.55271368e-15,13.9568182 -3.55271368e-15,15.7295455 L-3.55271368e-15,43.8272727 C-3.55271368e-15,45.9545455 1.32142857,48.0818182 3.17142857,48.8795455 C3.78809524,49.1454545 4.49285714,49.5 5.19761905,49.5 L24.5785714,49.5" id="Shape"/>
                    <path d="M33.3,30.8333333 L21.0547619,30.8333333 L45.5452381,0.704761905 L39.0261905,28.1904762 L51.447619,28.1904762 L26.7809524,58.3190476 L33.3,30.8333333 Z" id="Shape"/>
                </g>
            </g>
        </g>
    </g>
</svg>