<?xml version="1.0" encoding="UTF-8" standalone="no"?>
<svg width="71px" height="75px" viewBox="0 0 71 75" version="1.1" xmlns="http://www.w3.org/2000/svg" xmlns:xlink="http://www.w3.org/1999/xlink" xmlns:sketch="http://www.bohemiancoding.com/sketch/ns">
    <!-- Generator: Sketch 3.4 (15575) - http://www.bohemiancoding.com/sketch -->
    <title>icon-coverage</title>
    <desc>Created with Sketch.</desc>
    <defs/>
    <g id="Marketing" stroke="none" stroke-width="1" fill="none" fill-rule="evenodd" sketch:type="MSPage">
        <g id="/home" sketch:type="MSArtboardGroup" transform="translate(-1008.000000, -2352.000000)">
            <g id="Group" sketch:type="MSLayerGroup" transform="translate(0.000000, 2099.000000)">
                <g id="icon-coverage" transform="translate(1009.000000, 254.000000)" sketch:type="MSShapeGroup">
                    <path d="M24.9438202,67.5146067 C10.5595506,63.3573034 0.0831460674,50.1370787 0.0831460674,34.4224719 C0.0831460674,15.3820225 15.4651685,0 34.505618,0 C53.5460674,0 68.9280899,15.3820225 68.9280899,34.4224719 C68.9280899,50.1370787 58.4516854,63.3573034 44.0674157,67.5146067" id="Shape" stroke="#00B2E2" stroke-width="2"/>
                    <path d="M34.505618,8.48089888 C46.9775281,8.48089888 57.1213483,18.6247191 57.1213483,31.0966292 C57.1213483,41.988764 39.494382,65.1033708 34.505618,71.4224719 C29.5168539,65.1033708 11.8898876,42.0719101 11.8898876,31.0966292 C11.8898876,18.6247191 22.0337079,8.48089888 34.505618,8.48089888 L34.505618,8.48089888 Z M34.505618,6.81797753 C21.1191011,6.81797753 10.2269663,17.7101124 10.2269663,31.0966292 C10.2269663,44.4831461 34.505618,74 34.505618,74 C34.505618,74 58.7842697,44.4 58.7842697,31.0134831 C58.7842697,17.6269663 47.8921348,6.81797753 34.505618,6.81797753 L34.505618,6.81797753 L34.505618,6.81797753 Z" id="Shape" fill="#00B2E2"/>
                    <path d="M34.505618,25.4426966 C37.5820225,25.4426966 40.0764045,27.9370787 40.0764045,31.0134831 C40.0764045,34.0898876 37.5820225,36.5842697 34.505618,36.5842697 C31.4292135,36.5842697 28.9348315,34.0898876 28.9348315,31.0134831 C28.9348315,27.9370787 31.4292135,25.4426966 34.505618,25.4426966 L34.505618,25.4426966 Z M34.505618,23.7797753 C30.5146067,23.7797753 27.2719101,27.0224719 27.2719101,31.0134831 C27.2719101,35.0044944 30.5146067,38.247191 34.505618,38.247191 C38.4966292,38.247191 41.7393258,35.0044944 41.7393258,31.0134831 C41.7393258,27.0224719 38.4966292,23.7797753 34.505618,23.7797753 L34.505618,23.7797753 L34.505618,23.7797753 Z" id="Shape" fill="#00B2E2"/>
                </g>
            </g>
        </g>
    </g>
</svg>