<?xml version="1.0" encoding="UTF-8"?>
<!-- Generator: Adobe Illustrator 18.1.0, SVG Export Plug-In . SVG Version: 6.00 Build 0)  -->
<!DOCTYPE svg PUBLIC "-//W3C//DTD SVG 1.1//EN" "http://www.w3.org/Graphics/SVG/1.1/DTD/svg11.dtd">
<svg version="1.1" xmlns="http://www.w3.org/2000/svg" xmlns:xlink="http://www.w3.org/1999/xlink" x="0px" y="0px" viewBox="235 208.6 72 60" enable-background="new 235 208.6 72 60" xml:space="preserve">
<g id="Layer_1" xmlns:sketch="http://www.bohemiancoding.com/sketch/ns">
</g>
<g id="Layer_2">
	<g>
		<path fill="none" stroke="#00B2E2" stroke-width="2" stroke-miterlimit="10" d="M291,252v-25.2l3.9-3.3l4.4,3.8l-2.9,3l2.7,3.2    l-2.8,3.2l2.6,3l-3,3l3,3.2v6l0,1h3c1.1,0,2,0.9,2,2v8.9c0,1.1-0.9,2-2,2h-14c-1.1,0-2-0.9-2-2V255c0-1.1,0.9-2,2-2h3L291,252z"/>
	</g>
	<g>
		<defs>
			<path id="SVGID_97_" d="M265.7,242.3c-0.5-0.5-0.7-1.1-0.7-1.8c0-1.4,1.1-2.5,2.5-2.5c1.4,0,2.5,1.1,2.5,2.5     c0,0.7-0.3,1.3-0.7,1.8l-1.8,1.8L265.7,242.3z M270.3,249.8c0.4,0.4,1.1,0.4,1.5,0c0.4-0.4,0.4-1.1,0-1.5l-2.8-2.8l1.8-1.8     c0.8-0.8,1.3-2,1.3-3.2c0-2.5-2.1-4.6-4.6-4.6c-2.5,0-4.6,2.1-4.6,4.6c0,1.3,0.5,2.4,1.3,3.2l1.8,1.8l-1.8,1.8     c-0.5,0.5-1.1,0.7-1.8,0.7c-1.4,0-2.5-1.1-2.5-2.5v-15.6c0-0.6-0.5-1-1-1s-1,0.5-1,1v15.6c0,2.5,2,4.6,4.6,4.6     c1.3,0,2.4-0.5,3.2-1.3l1.8-1.8L270.3,249.8z"/>
		</defs>
		<use xlink:href="#SVGID_97_" overflow="visible" fill-rule="evenodd" clip-rule="evenodd" fill="#00B2E2"/>
		<clipPath id="SVGID_2_">
			<use xlink:href="#SVGID_97_" overflow="visible"/>
		</clipPath>
	</g>
	<g>
		<defs>
			<polygon id="SVGID_99_" points="235,208.6 293,208.6 293,225.1 291,226.8 290.8,252 286.2,252.2 285.8,268.6 235,268.6    "/>
		</defs>
		<clipPath id="SVGID_3_">
			<use xlink:href="#SVGID_99_" overflow="visible"/>
		</clipPath>
		<g clip-path="url(#SVGID_3_)">
			<defs>
				<path id="SVGID_101_" d="M264.9,212.1c-23.5,0-26.9,0.8-26.9,27c0,26.2,3.4,27,26.9,27s26.9-0.8,26.9-27      C291.9,212.9,288.4,212.1,264.9,212.1"/>
			</defs>
			<clipPath id="SVGID_4_">
				<use xlink:href="#SVGID_101_" overflow="visible"/>
			</clipPath>
			<g clip-path="url(#SVGID_4_)">
				<defs>
					<rect id="SVGID_103_" x="-537" y="-419.4" width="2431.2" height="2958"/>
				</defs>
				<clipPath id="SVGID_5_">
					<use xlink:href="#SVGID_103_" overflow="visible"/>
				</clipPath>
				
					<rect x="229.6" y="203.6" clip-path="url(#SVGID_5_)" fill="none" stroke="#00B2E2" stroke-width="2" stroke-miterlimit="10" width="70.7" height="70.8"/>
				<use xlink:href="#SVGID_103_" overflow="visible" fill="none" stroke="#00B2E2" stroke-width="2" stroke-miterlimit="10"/>
			</g>
			
				<use xlink:href="#SVGID_101_" overflow="visible" fill-rule="evenodd" clip-rule="evenodd" fill="none" stroke="#00B2E2" stroke-width="2" stroke-miterlimit="10"/>
		</g>
	</g>
	<rect x="289.5" y="259.5" fill="none" stroke="#00B2E2" stroke-miterlimit="10" width="11" height="3"/>
</g>
</svg>