<?xml version="1.0" encoding="UTF-8"?>
<!-- Generator: Adobe Illustrator 18.1.0, SVG Export Plug-In . SVG Version: 6.00 Build 0)  -->
<!DOCTYPE svg PUBLIC "-//W3C//DTD SVG 1.1//EN" "http://www.w3.org/Graphics/SVG/1.1/DTD/svg11.dtd">
<svg version="1.1" id="Layer_1" xmlns="http://www.w3.org/2000/svg" xmlns:xlink="http://www.w3.org/1999/xlink" x="0px" y="0px" viewBox="0 0 63 60" enable-background="new 0 0 63 60" xml:space="preserve">
<path fill="none" stroke="#00B2E2" stroke-width="2" stroke-miterlimit="10" d="M35,20c0,0,3.4,3.4,8,8s4,10.6,4,10.6v10L58,59"/>
<path fill="none" stroke="#00B2E2" stroke-width="2" stroke-miterlimit="10" d="M40,39l-9.6-9.8c0,0-4-4.3-7-1  C21.8,29.9,24,33,24,33l7,9.6c0,0,0,0.1,0,6.1s6,9.9,6,9.9"/>
<g>
	<defs>
		<polygon id="SVGID_1_" points="2.1,-0.6 37,-0.6 37,32.4 32,32.4 32,51.4 32,58.4 1.1,58.4   "/>
	</defs>
	<clipPath id="SVGID_2_">
		<use xlink:href="#SVGID_1_" overflow="visible"/>
	</clipPath>
	<path clip-path="url(#SVGID_2_)" fill="none" stroke="#00B2E2" stroke-width="2" stroke-miterlimit="10" d="M32.1,52H7.8   C6.3,52,5,50.7,5,49.2V4.8C5,3.3,6.3,2,7.8,2h24.3C33.7,2,35,3.4,35,5l0,44.2C35,50.7,33.7,52,32.1,52z"/>
</g>
</svg>