<?xml version="1.0" encoding="utf-8"?>
<!-- Generator: Adobe Illustrator 18.1.0, SVG Export Plug-In . SVG Version: 6.00 Build 0)  -->
<!DOCTYPE svg PUBLIC "-//W3C//DTD SVG 1.1//EN" "http://www.w3.org/Graphics/SVG/1.1/DTD/svg11.dtd">
<svg version="1.1" id="Layer_1" xmlns:sketch="http://www.bohemiancoding.com/sketch/ns"
	 xmlns="http://www.w3.org/2000/svg" xmlns:xlink="http://www.w3.org/1999/xlink" x="0px" y="0px" viewBox="-528 948 26 26"
	 enable-background="new -528 948 26 26" xml:space="preserve">
<title>icon-nav-account</title>
<desc>Created with Sketch.</desc>
<g id="Marketing" sketch:type="MSPage">
	<path id="Stroke-1" sketch:type="MSShapeGroup" fill="none" stroke="#4C5058" stroke-width="1.5" d="M-515,973c6.6,0,12-5.4,12-12
		s-5.4-12-12-12s-12,5.4-12,12S-521.6,973-515,973L-515,973z"/>
	<path id="Stroke-2" sketch:type="MSShapeGroup" fill="none" stroke="#4C5058" stroke-width="1.5" d="M-518.4,957.9v-1.7
		c0-1.9,1.5-3.4,3.4-3.4s3.4,1.5,3.4,3.4v1.7c0,1.9-1.5,3.4-3.4,3.4S-518.4,959.8-518.4,957.9z M-523,970c1.2-2.6,3.3-5.8,6.8-5.7
		h2.3c3.4-0.1,5.7,3.1,6.9,5.7"/>
</g>
</svg>
